<svg width="35" height="34" viewBox="0 0 35 34" fill="none" xmlns="http://www.w3.org/2000/svg">
<path d="M16.5489 0.927048C16.8483 0.00573753 18.1517 0.00574006 18.4511 0.927051L21.878 11.4742C22.0119 11.8862 22.3959 12.1652 22.8291 12.1652H33.919C34.8877 12.1652 35.2905 13.4048 34.5068 13.9742L25.5348 20.4926C25.1844 20.7473 25.0377 21.1987 25.1716 21.6107L28.5985 32.1578C28.8979 33.0791 27.8434 33.8452 27.0597 33.2758L18.0878 26.7574C17.7373 26.5027 17.2627 26.5027 16.9122 26.7574L7.9403 33.2758C7.15658 33.8452 6.10211 33.0791 6.40146 32.1578L9.82842 21.6107C9.9623 21.1987 9.81564 20.7473 9.46515 20.4926L0.493237 13.9742C-0.290476 13.4048 0.112302 12.1652 1.08103 12.1652H12.1709C12.6041 12.1652 12.9881 11.8862 13.122 11.4742L16.5489 0.927048Z" fill="#7AB39E" fill-opacity="0.5"/>
</svg>
